<?xml version="1.0" encoding="UTF-8" standalone="no"?>
<svg
   width="32"
   height="32"
   version="1.1"
   id="svg4"
   sodipodi:docname="logo.svg"
   inkscape:version="1.1.1 (eb90963e84, 2021-10-02)"
   xmlns:inkscape="http://www.inkscape.org/namespaces/inkscape"
   xmlns:sodipodi="http://sodipodi.sourceforge.net/DTD/sodipodi-0.dtd"
   xmlns="http://www.w3.org/2000/svg"
   xmlns:svg="http://www.w3.org/2000/svg">
  <defs
     id="defs8" />
  <sodipodi:namedview
     id="namedview6"
     pagecolor="#ffffff"
     bordercolor="#666666"
     borderopacity="1.0"
     inkscape:pageshadow="2"
     inkscape:pageopacity="0.0"
     inkscape:pagecheckerboard="0"
     showgrid="false"
     inkscape:zoom="6.0324037"
     inkscape:cx="4.7244849"
     inkscape:cy="21.467396"
     inkscape:window-width="1294"
     inkscape:window-height="705"
     inkscape:window-x="72"
     inkscape:window-y="26"
     inkscape:window-maximized="1"
     inkscape:current-layer="svg4" />
  <path
     d="M31.952 14.751a260.51 260.51 0 00-4.359-4.407C23.932 6.734 20.16 3.182 16.171 0c1.634.017 3.21.28 4.692.751 3.487 3.114 6.846 6.398 10.163 9.737.493 1.346.811 2.776.926 4.262zm-1.388 7.883c-2.496-2.597-5.051-5.12-7.737-7.471-3.706-3.246-10.693-9.81-15.736-7.418-4.552 2.158-4.717 10.543-4.96 16.238A15.926 15.926 0 010 16C0 9.799 3.528 4.421 8.686 1.766c1.82.593 3.593 1.675 5.038 2.587 6.569 4.14 12.29 9.71 17.792 15.57-.237.94-.557 1.846-.952 2.711zm-4.505 5.81a56.161 56.161 0 00-1.007-.823c-2.574-2.054-6.087-4.805-9.394-4.044-3.022.695-4.264 4.267-4.97 7.52a15.945 15.945 0 01-3.665-1.85c.366-3.242.89-6.675 2.405-9.364 2.315-4.107 6.287-3.072 9.613-1.132 3.36 1.96 6.417 4.572 9.313 7.417a16.097 16.097 0 01-2.295 2.275z"
     fill="#5658DD"
     fill-rule="nonzero"
     id="path2"
     style="fill:#0f6f54;fill-opacity:1" />
</svg>
